<svg xmlns="http://www.w3.org/2000/svg" version="1.1" xmlns:xlink="http://www.w3.org/1999/xlink" xmlns:svgjs="http://svgjs.dev/svgjs" width="2000" height="1500" viewBox="0 0 2000 1500"><rect width="2000" height="1500" fill="#000000"></rect><g transform="matrix(0.75,0,0,0.75,249.09100775593026,536.2260120371002)"><svg viewBox="0 0 396 113" data-background-color="#000000" preserveAspectRatio="xMidYMid meet" height="570" width="2000" xmlns="http://www.w3.org/2000/svg" xmlns:xlink="http://www.w3.org/1999/xlink"><g id="tight-bounds" transform="matrix(1,0,0,1,0.23997395243441133,0.006340677912703541)"><svg viewBox="0 0 395.52 112.9873186441746" height="112.9873186441746" width="395.52"><g><svg viewBox="0 0 668.7533178027363 191.04127278753722" height="112.9873186441746" width="395.52"><g><rect width="7.861944707148026" height="191.04127278753722" x="244.79036600881332" y="0" fill="#89939e" opacity="1" stroke-width="0" stroke="transparent" fill-opacity="1" class="rect-o-0" data-fill-palette-color="primary" rx="1%" id="o-0" data-palette-color="#89939e"></rect></g><g transform="matrix(1,0,0,1,273.2333178027363,0.4752270467351565)"><svg viewBox="0 0 395.52 190.0908186940669" height="190.0908186940669" width="395.52"><g id="textblocktransform"><svg viewBox="0 0 395.52 190.0908186940669" height="190.0908186940669" width="395.52" id="textblock"><g><svg viewBox="0 0 395.52 190.0908186940669" height="190.0908186940669" width="395.52"><g transform="matrix(1,0,0,1,0,0)"><svg width="395.52" viewBox="2.799999952316284 -32.45000076293945 150.94996643066406 69.5" height="190.0908186940669" data-palette-color="#89939e"><svg></svg><svg></svg><g class="wordmark-text-0" data-fill-palette-color="primary" id="text-0"><path xmlns="http://www.w3.org/2000/svg" d="M2.8 0.6l0.3-2.3c1.567-0.3 2.627-0.743 3.18-1.33 0.547-0.58 0.82-1.57 0.82-2.97v0l0.05-21c0-1.067-0.123-1.783-0.37-2.15-0.253-0.367-0.747-0.55-1.48-0.55v0l-2.1 0.1-0.1-0.2 0.35-2.2c0.533 0 0.95 0.017 1.25 0.05v0l4.7 0.1c1.5 0 3.417-0.15 5.75-0.45v0l-0.2 2.25c-1.367 0.167-2.29 0.44-2.77 0.82-0.487 0.387-0.763 1.063-0.83 2.03v0c-0.2 3.9-0.367 7.973-0.5 12.22-0.133 4.253-0.2 7.38-0.2 9.38v0c0 1.367 0.15 2.273 0.45 2.72 0.3 0.453 0.883 0.68 1.75 0.68v0c0.567 0 1.45-0.05 2.65-0.15v0l0.1 0.2-0.45 2.3c-0.467 0-0.833-0.017-1.1-0.05v0c-2.333-0.067-4.15-0.1-5.45-0.1v0c-1.633 0-3.567 0.2-5.8 0.6zM23.3 0.2l0.4-2.15c1.667-0.133 2.817-0.343 3.45-0.63 0.633-0.28 1.05-0.797 1.25-1.55 0.2-0.747 0.3-2.07 0.3-3.97v0-21.8c-2.833 0.1-4.757 0.257-5.77 0.47-1.02 0.22-1.713 0.703-2.08 1.45-0.367 0.753-0.7 2.213-1 4.38v0l-2.35 0.2c0.4-3.167 0.65-6.05 0.75-8.65v0l0.45-0.4 4.15 0.55h15.5l4.25-0.55 0.45 0.4c0.1 2.733 0.35 5.55 0.75 8.45v0l-2.35 0.2c-0.367-2.2-0.733-3.683-1.1-4.45-0.367-0.767-1.017-1.267-1.95-1.5-0.933-0.233-2.733-0.417-5.4-0.55v0c-0.2 2-0.383 5.533-0.55 10.6-0.167 5.067-0.25 9.633-0.25 13.7v0c0 1.233 0.217 2.107 0.65 2.62 0.433 0.52 1.167 0.78 2.2 0.78v0c1 0 1.917-0.05 2.75-0.15v0l0.15 0.2-0.45 2.3-1.65-0.05-5.7-0.1c-1.833 0-4.117 0.067-6.85 0.2zM47.9-14.25l-0.55-0.1c0.033-0.6 0.05-1.5 0.05-2.7v0c0-1.867-0.05-3.593-0.15-5.18-0.1-1.58-0.167-2.587-0.2-3.02v0l3.5-0.7 0.35 0.4c-0.067 0.633-0.267 2.023-0.6 4.17-0.333 2.153-0.717 4.297-1.15 6.43v0zM64.1 0.6c-1.4 0-2.683-0.123-3.85-0.37-1.167-0.253-2.123-0.53-2.87-0.83-0.753-0.3-1.13-0.467-1.13-0.5v0l-0.25-0.5c0.033-0.2 0.1-0.7 0.2-1.5 0.1-0.8 0.193-1.843 0.28-3.13 0.08-1.28 0.12-2.637 0.12-4.07v0l2.25-0.25c0 2.5 0.167 4.35 0.5 5.55 0.333 1.2 0.95 2.023 1.85 2.47 0.9 0.453 2.283 0.68 4.15 0.68v0c2.1 0 3.783-0.493 5.05-1.48 1.267-0.98 1.9-2.32 1.9-4.02v0c0-1-0.34-1.9-1.02-2.7-0.687-0.8-1.497-1.483-2.43-2.05-0.933-0.567-2.317-1.333-4.15-2.3v0c-1.733-0.9-3.15-1.727-4.25-2.48-1.1-0.747-2.023-1.637-2.77-2.67-0.753-1.033-1.13-2.233-1.13-3.6v0c0-1.733 0.51-3.31 1.53-4.73 1.013-1.413 2.397-2.53 4.15-3.35 1.747-0.813 3.687-1.22 5.82-1.22v0c1.333 0 2.567 0.09 3.7 0.27 1.133 0.187 2.033 0.38 2.7 0.58 0.667 0.2 1.083 0.333 1.25 0.4v0l0.15 0.3c-0.033 0.2-0.117 0.667-0.25 1.4-0.133 0.733-0.283 1.75-0.45 3.05-0.167 1.3-0.3 2.633-0.4 4v0l-1.95 0.2-0.3-0.25c0.033-0.133 0.067-0.443 0.1-0.93 0.033-0.48 0.05-1.037 0.05-1.67v0c0-1.767-0.433-2.983-1.3-3.65-0.867-0.667-2.417-1-4.65-1v0c-1.833 0-3.34 0.457-4.52 1.37-1.187 0.92-1.78 2.063-1.78 3.43v0c0 1.333 0.577 2.49 1.73 3.47 1.147 0.987 2.837 2.063 5.07 3.23v0c2.167 1.1 3.817 2.007 4.95 2.72 1.133 0.72 2.133 1.613 3 2.68 0.867 1.067 1.3 2.3 1.3 3.7v0c0 1.867-0.523 3.54-1.57 5.02-1.053 1.487-2.513 2.647-4.38 3.48-1.867 0.833-4 1.25-6.4 1.25z" fill="#89939e" fill-rule="nonzero" stroke="none" stroke-width="1" stroke-linecap="butt" stroke-linejoin="miter" stroke-miterlimit="10" stroke-dasharray="" stroke-dashoffset="0" font-family="none" font-weight="none" font-size="none" text-anchor="none" style="mix-blend-mode: normal" data-fill-palette-color="primary" opacity="1"></path><path xmlns="http://www.w3.org/2000/svg" d="M2.9 36.85l0.3-2.3c1.533-0.3 2.567-0.743 3.1-1.33 0.533-0.58 0.8-1.57 0.8-2.97v0l0.05-21c0-1.067-0.123-1.783-0.37-2.15-0.253-0.367-0.747-0.55-1.48-0.55v0l-1.7 0.1-0.1-0.2 0.35-2.2c0.433 0 0.767 0.017 1 0.05v0c2 0.067 3.517 0.1 4.55 0.1v0c1.4 0 3.183-0.15 5.35-0.45v0l-0.2 2.25c-1 0.167-1.707 0.367-2.12 0.6-0.42 0.233-0.703 0.623-0.85 1.17-0.153 0.553-0.263 1.463-0.33 2.73v0l-0.3 8.1 8.4 0.05c2.1 0 4.567-0.167 7.4-0.5v0l0.05-9.1c0-1.067-0.123-1.783-0.37-2.15-0.253-0.367-0.747-0.55-1.48-0.55v0c-0.467 0-1.033 0.033-1.7 0.1v0l-0.1-0.2 0.35-2.2c0.367 0.033 1.033 0.067 2 0.1 0.967 0.033 1.933 0.05 2.9 0.05v0c1.6 0 3.6-0.15 6-0.45v0l-0.2 2.25c-1.233 0.167-2.067 0.44-2.5 0.82-0.433 0.387-0.667 1.063-0.7 2.03v0c-0.2 3.767-0.367 7.807-0.5 12.12-0.133 4.32-0.2 7.58-0.2 9.78v0c0 1.233 0.15 2.057 0.45 2.47 0.3 0.42 0.883 0.63 1.75 0.63v0c0.4 0 1.15-0.05 2.25-0.15v0l0.1 0.2-0.45 2.3c-0.467 0-0.833-0.017-1.1-0.05v0c-2.2-0.067-3.883-0.1-5.05-0.1v0l-5.75 0.1 0.45-2.25c1.1-0.033 1.91-0.183 2.43-0.45 0.513-0.267 0.87-0.767 1.07-1.5 0.2-0.733 0.3-1.867 0.3-3.4v0-7.55l-7.6-0.05c-0.833 0.033-2 0.09-3.5 0.17-1.5 0.087-3.1 0.213-4.8 0.38v0l-0.2 8.95c0 1.367 0.15 2.273 0.45 2.72 0.3 0.453 0.883 0.68 1.75 0.68v0c0.4 0 1.15-0.05 2.25-0.15v0l0.1 0.2-0.45 2.3c-0.3-0.033-0.867-0.067-1.7-0.1-0.833-0.033-1.683-0.05-2.55-0.05v0c-1.533 0-3.173 0.067-4.92 0.2-1.753 0.133-2.647 0.267-2.68 0.4zM64.15 27.65l0.15 0.25c-0.567 2.7-1.017 5.5-1.35 8.4v0l-0.25 0.3c-7-0.233-12.05-0.35-15.15-0.35v0c-2.467 0-4.783 0.167-6.95 0.5v0l0.3-2.3c1.5-0.2 2.527-0.593 3.08-1.18 0.547-0.58 0.82-1.587 0.82-3.02v0l0.05-21c0-1.067-0.123-1.783-0.37-2.15-0.253-0.367-0.747-0.55-1.48-0.55v0l-1.7 0.1-0.1-0.2 0.35-2.2c3.4 0.1 5.717 0.15 6.95 0.15v0c3.967 0 7.05-0.043 9.25-0.13 2.2-0.08 4.117-0.237 5.75-0.47v0l0.15 0.3c-0.6 2.633-0.983 5.4-1.15 8.3v0l-2.4 0.2 0.1-2.15c0-1.167-0.15-1.977-0.45-2.43-0.3-0.447-0.95-0.747-1.95-0.9-1-0.147-2.75-0.22-5.25-0.22v0c-1.167 0-1.967 0.033-2.4 0.1-0.433 0.067-0.717 0.223-0.85 0.47-0.133 0.253-0.217 0.713-0.25 1.38v0l-0.4 9.7 5.15 0.05c1.3 0 3.333-0.183 6.1-0.55v0l0.2 0.25-0.7 2.95c-3.7-0.1-6.033-0.15-7-0.15v0c-1.1 0-2.383 0.117-3.85 0.35v0l-0.2 9.55c0 0.967 0.083 1.64 0.25 2.02 0.167 0.387 0.51 0.647 1.03 0.78 0.513 0.133 1.403 0.2 2.67 0.2v0c2.8 0 4.793-0.133 5.98-0.4 1.18-0.267 2.02-0.8 2.52-1.6 0.5-0.8 0.883-2.167 1.15-4.1v0zM83.85 36.75l-0.15-0.35 0.2-1.95c1.7-0.133 2.867-0.333 3.5-0.6 0.633-0.267 0.95-0.7 0.95-1.3v0c0-0.667-0.15-1.467-0.45-2.4v0l-1.65-5.45c-0.8-0.033-2.533-0.05-5.2-0.05v0c-1.6 0-3.417 0.133-5.45 0.4v0l-1.85 5.2c-0.3 0.9-0.45 1.55-0.45 1.95v0c0 0.733 0.233 1.257 0.7 1.57 0.467 0.32 1.233 0.48 2.3 0.48v0h2.85l0.1 0.2-0.3 2.15c-0.4-0.033-1.317-0.1-2.75-0.2-1.433-0.1-2.833-0.15-4.2-0.15v0c-1.233 0-2.373 0.017-3.42 0.05-1.053 0.033-1.747 0.067-2.08 0.1v0l0.4-2.35c0.933-0.1 1.683-0.427 2.25-0.98 0.567-0.547 1.117-1.503 1.65-2.87v0l9.75-25.55 3.15-0.85h0.4c0.2 0.8 0.71 2.65 1.53 5.55 0.813 2.9 1.813 6.333 3 10.3 1.18 3.967 2.32 7.617 3.42 10.95v0c0.4 1.233 0.933 2.1 1.6 2.6 0.667 0.5 1.733 0.817 3.2 0.95v0l0.1 0.2-0.35 2.05c-0.4 0-1.127-0.023-2.18-0.07-1.047-0.053-2.087-0.08-3.12-0.08v0c-1.6 0-3.143 0.067-4.63 0.2-1.48 0.133-2.42 0.233-2.82 0.3zM76.5 22.6h4.4c1.2 0 2.75-0.083 4.65-0.25v0l-3.95-13.1h-0.35zM122.05 37.05c-0.833 0-1.723-0.427-2.67-1.28-0.953-0.847-1.83-2.003-2.63-3.47v0l-5.35-9.7h-4.15l-0.15 7.45c0 1.267 0.083 2.173 0.25 2.72 0.167 0.553 0.483 0.92 0.95 1.1 0.467 0.187 1.267 0.28 2.4 0.28v0l0.1 0.2-0.45 2.1c-0.4-0.033-1.2-0.067-2.4-0.1-1.2-0.033-2.45-0.05-3.75-0.05v0c-1.167 0-2.2 0.017-3.1 0.05-0.9 0.033-1.5 0.067-1.8 0.1v0l0.45-2.25c1.067-0.133 1.867-0.317 2.4-0.55 0.533-0.233 0.9-0.61 1.1-1.13 0.2-0.513 0.3-1.27 0.3-2.27v0l0.05-21c0-1.067-0.123-1.783-0.37-2.15-0.253-0.367-0.747-0.55-1.48-0.55v0c-0.333 0-0.667 0.017-1 0.05-0.333 0.033-0.567 0.05-0.7 0.05v0l-0.1-0.2 0.35-2.2c0.4 0.033 1.15 0.067 2.25 0.1 1.1 0.033 2.2 0.05 3.3 0.05v0c1.133 0 2.327-0.027 3.58-0.08 1.247-0.047 2.103-0.087 2.57-0.12v0c3.1 0 5.55 0.7 7.35 2.1 1.8 1.4 2.7 3.317 2.7 5.75v0c0 2-0.64 3.833-1.92 5.5-1.287 1.667-3.097 3.033-5.43 4.1v0l5.5 8.7c0.967 1.6 1.91 2.707 2.83 3.32 0.913 0.62 2.037 0.93 3.37 0.93v0l0.2 0.2-0.3 1.7zM112.5 20.3c0 0.1 0.5-0.117 1.5-0.65 1-0.533 1.9-1.35 2.7-2.45 0.8-1.1 1.2-2.517 1.2-4.25v0c0-4.4-3.05-6.6-9.15-6.6v0c-0.333 0-0.557 0.073-0.67 0.22-0.12 0.153-0.197 0.463-0.23 0.93v0c-0.3 5.1-0.467 9.2-0.5 12.3v0zM133.25 36.45l0.4-2.15c1.667-0.133 2.817-0.343 3.45-0.63 0.633-0.28 1.05-0.797 1.25-1.55 0.2-0.747 0.3-2.07 0.3-3.97v0-21.8c-2.833 0.1-4.757 0.257-5.77 0.47-1.02 0.22-1.713 0.703-2.08 1.45-0.367 0.753-0.7 2.213-1 4.38v0l-2.35 0.2c0.4-3.167 0.65-6.05 0.75-8.65v0l0.45-0.4 4.15 0.55h15.5l4.25-0.55 0.45 0.4c0.1 2.733 0.35 5.55 0.75 8.45v0l-2.35 0.2c-0.367-2.2-0.733-3.683-1.1-4.45-0.367-0.767-1.017-1.267-1.95-1.5-0.933-0.233-2.733-0.417-5.4-0.55v0c-0.2 2-0.383 5.533-0.55 10.6-0.167 5.067-0.25 9.633-0.25 13.7v0c0 1.233 0.217 2.107 0.65 2.62 0.433 0.52 1.167 0.78 2.2 0.78v0c1 0 1.917-0.05 2.75-0.15v0l0.15 0.2-0.45 2.3-1.65-0.05-5.7-0.1c-1.833 0-4.117 0.067-6.85 0.2z" fill="#89939e" fill-rule="nonzero" stroke="none" stroke-width="1" stroke-linecap="butt" stroke-linejoin="miter" stroke-miterlimit="10" stroke-dasharray="" stroke-dashoffset="0" font-family="none" font-weight="none" font-size="none" text-anchor="none" style="mix-blend-mode: normal" data-fill-palette-color="primary" opacity="1"></path></g></svg></g></svg></g></svg></g></svg></g><g transform="matrix(1,0,0,1,0,0.4752270467351565)"><svg viewBox="0 0 224.20935892203838 190.0908186940669" height="190.0908186940669" width="224.20935892203838"><g><svg xmlns="http://www.w3.org/2000/svg" xmlns:xlink="http://www.w3.org/1999/xlink" version="1.1" x="0" y="0" viewBox="5.014999866485596 13 88.62300109863281 75.13700103759766" enable-background="new 0 0 100 100" xml:space="preserve" height="190.0908186940669" width="224.20935892203838" class="icon-icon-0" data-fill-palette-color="accent" id="icon-0"><polygon points="48.305,35.232 48.298,13 29.07,13 " fill="#dedede" data-fill-palette-color="accent"></polygon><polygon points="48.318,82.991 48.306,39 30.102,39 " fill="#dedede" data-fill-palette-color="accent"></polygon><polygon points="27.853,39 5.015,39 48.2,88.137 " fill="#dedede" data-fill-palette-color="accent"></polygon><polygon points="27,37 27,14.125 5.327,37 " fill="#dedede" data-fill-palette-color="accent"></polygon><polygon points="46.667,37 29,16.261 29,37 " fill="#dedede" data-fill-palette-color="accent"></polygon><polygon points="50.349,35.232 50.354,13 69.583,13 " fill="#dedede" data-fill-palette-color="accent"></polygon><polygon points="50.335,82.991 50.348,39 68.551,39 " fill="#dedede" data-fill-palette-color="accent"></polygon><polygon points="70.801,39 93.638,39 50.453,88.137 " fill="#dedede" data-fill-palette-color="accent"></polygon><polygon points="71,37 71,14.125 93.326,37 " fill="#dedede" data-fill-palette-color="accent"></polygon><polygon points="51.986,37 69,16.261 69,37 " fill="#dedede" data-fill-palette-color="accent"></polygon></svg></g></svg></g></svg></g><defs></defs></svg><rect width="395.52" height="112.9873186441746" fill="none" stroke="none" visibility="hidden"></rect></g></svg></g></svg>